<?xml version="1.0" encoding="UTF-8"?>
<!DOCTYPE svg PUBLIC "-//W3C//DTD SVG 1.1//EN" "http://www.w3.org/Graphics/SVG/1.1/DTD/svg11.dtd">

<svg width="100%" height="100%" version="1.1" xmlns="http://www.w3.org/2000/svg" xmlns:xlink="http://www.w3.org/1999/xlink" xml:space="preserve" >
    <defs>
        <symbol id="hy-logo" width="100%" height="100%" viewBox="0 0 300 90">
            <g>
                <g>
                    <g>
                        <polygon style="fill:#B5001A;" points="40.3,0 22.2,10.4 40.3,20.9"/>
                        <polygon style="fill:#E50027;" points="40.3,0 58.4,10.4 40.3,20.9"/>
                        <path style="fill:#035AA1;" d="M80.6,25c0-2.3-1.9-4.2-4.2-4.2c-2.3,0-4.2,1.9-4.2,4.2c0,1.5,0.8,2.9,2.1,3.6v34.5l-7.9-4.5V21.7
                            c1.2-0.7,2.1-2.1,2.1-3.6c0-2.3-1.9-4.2-4.2-4.2c-2.3,0-4.2,1.9-4.2,4.2c0,1.5,0.8,2.9,2.1,3.6V61l9.9,5.7L42.4,84v-9.1l12-7
                            V28.6c1.2-0.7,2.1-2.1,2.1-3.6c0-2.3-1.9-4.2-4.2-4.2c-2.3,0-4.2,1.9-4.2,4.2c0,1.5,0.8,2.9,2.1,3.6v36.9l-7.9,4.5V35.6
                            c1.2-0.7,2.1-2.1,2.1-3.6c0-2.3-1.9-4.2-4.2-4.2c-2.3,0-4.2,1.9-4.2,4.2c0,1.5,0.8,2.9,2.1,3.6v34.5l-7.9-4.5V28.6
                            c1.2-0.7,2.1-2.1,2.1-3.6c0-2.3-1.9-4.2-4.2-4.2c-2.3,0-4.2,1.9-4.2,4.2c0,1.5,0.8,2.9,2.1,3.6v39.3l12,7V84L8.3,66.7l10-5.7
                            V21.7c1.2-0.7,2.1-2.1,2.1-3.6c0-2.3-1.9-4.2-4.2-4.2c-2.3,0-4.2,1.9-4.2,4.2c0,1.5,0.8,2.9,2.1,3.6v36.9l-7.9,4.5V28.6
                            c1.2-0.7,2.1-2.1,2.1-3.6c0-2.3-1.9-4.2-4.2-4.2C1.9,20.9,0,22.7,0,25c0,1.5,0.8,2.9,2.1,3.6v39.3L40.3,90l38.2-22.1V28.6
                            C79.7,27.9,80.6,26.6,80.6,25z"/>
                    </g>
                    <g>
                        <path d="M115.2,58.7c-0.6,0-1.1-0.2-1.5-0.5c-0.4-0.3-0.5-0.8-0.5-1.3c0-0.5,0.2-1,0.5-1.3c0.4-0.3,0.8-0.5,1.5-0.5
                            h10.6v-2.1h-9.9c-0.6,0-1.1-0.2-1.5-0.5c-0.4-0.3-0.5-0.8-0.5-1.3c0-0.5,0.2-1,0.5-1.3c0.4-0.3,0.8-0.5,1.5-0.5h2.7v-3.7h-3
                            c-0.6,0-1.1-0.2-1.5-0.5l-0.3-0.5c-0.2,0.4-0.5,0.7-0.8,0.9c-0.5,0.2-1,0.3-1.5,0.2c-0.5-0.1-0.9-0.4-1.3-1l-0.1-0.2v17
                            c0,0.6-0.2,1.1-0.6,1.5c-0.4,0.4-0.8,0.5-1.5,0.6c-0.6,0-1.1-0.2-1.5-0.5c-0.4-0.4-0.6-0.9-0.6-1.5v-13c-0.8,1.7-1.6,2.7-2.2,2.9
                            c-0.5,0.2-1,0.1-1.6-0.1c-0.5-0.3-0.8-0.6-1-1.1c-0.2-0.5-0.1-1.1,0.2-1.6c2.1-3.6,3.5-7.2,4.1-10.8h-2.3c-0.7,0-1.2-0.2-1.6-0.5
                            c-0.4-0.4-0.6-0.8-0.6-1.4c0-0.5,0.2-1,0.6-1.4c0.4-0.4,0.9-0.6,1.6-0.6h2.8v-6.1c0-0.6,0.2-1.1,0.5-1.4c0.4-0.3,0.9-0.5,1.5-0.5
                            c0.6,0,1,0.2,1.5,0.5c0.4,0.4,0.6,0.8,0.6,1.4v6.1h1.7c0.7,0,1.2,0.2,1.5,0.5c0.4,0.4,0.6,0.8,0.6,1.4c0,0.5-0.2,1-0.6,1.4
                            c-0.4,0.4-0.9,0.6-1.5,0.6H110v0.7l3.7,4.4l0.4-0.6c0.4-0.3,0.8-0.5,1.5-0.5h3v-4h-2.2c-0.6,0-1.1-0.2-1.5-0.5
                            c-0.4-0.3-0.5-0.8-0.5-1.3c0-0.5,0.2-1,0.5-1.3c0.4-0.3,0.8-0.5,1.5-0.5h4.8l-0.7-0.4c-0.4-0.4-0.6-1-0.6-1.6v-0.5h-4.7
                            c-0.6,0-1.1-0.2-1.5-0.5c-0.4-0.3-0.5-0.8-0.5-1.3c0-0.5,0.2-1,0.5-1.3c0.4-0.3,0.8-0.5,1.5-0.5h4.7v-0.2c0-0.6,0.2-1.1,0.5-1.4
                            c0.4-0.4,0.9-0.5,1.6-0.5c0.6,0,1.1,0.2,1.5,0.5c0.4,0.4,0.7,0.8,0.7,1.4v0.2h6.5v-0.2c0-0.6,0.2-1.1,0.5-1.4
                            c0.4-0.4,0.9-0.5,1.6-0.5c0.6,0,1.1,0.2,1.5,0.5c0.4,0.4,0.7,0.8,0.7,1.4v0.2h5c0.6,0,1.1,0.1,1.4,0.5c0.4,0.3,0.5,0.8,0.5,1.3
                            c0,0.5-0.2,1-0.5,1.3c-0.4,0.4-0.8,0.5-1.4,0.5h-5v0.5c0,0.6-0.2,1.1-0.7,1.5l-0.7,0.5h5.5c0.6,0,1.1,0.2,1.4,0.5
                            c0.4,0.3,0.5,0.8,0.5,1.3c0,0.5-0.2,1-0.5,1.3c-0.4,0.4-0.8,0.5-1.4,0.5H137v4h2.8c0.6,0,1.1,0.2,1.4,0.5
                            c0.4,0.3,0.5,0.8,0.5,1.3c0,0.5-0.2,1-0.5,1.3c-0.4,0.4-0.8,0.5-1.4,0.5H137v3.7h2.5c0.6,0,1.1,0.1,1.4,0.5
                            c0.4,0.3,0.5,0.8,0.5,1.3c0,0.5-0.2,1-0.5,1.3c-0.4,0.4-0.8,0.5-1.4,0.5h-9.6v2.1h10.2c0.6,0,1.1,0.2,1.4,0.5
                            c0.4,0.3,0.5,0.8,0.5,1.3c0,0.5-0.2,1-0.5,1.3c-0.4,0.4-0.8,0.5-1.4,0.5h-10.2v3c0,0.6-0.2,1.1-0.6,1.5c-0.4,0.4-0.8,0.5-1.5,0.6
                            c-0.6,0-1.1-0.2-1.5-0.5c-0.4-0.4-0.6-0.9-0.6-1.5v-3H115.2z M125.8,38.1h-3.3v4h3.3V38.1z M125.8,45.7h-3.3v3.7h3.3V45.7z
                            M132,34.5l-0.7-0.4c-0.4-0.4-0.6-1-0.6-1.6v-0.5h-6.5v0.5c0,0.6-0.2,1.1-0.7,1.5l-0.7,0.5H132z M129.9,42.1h3.1v-4h-3.1V42.1z
                            M129.9,49.3h3.1v-3.7h-3.1V49.3z"/>
                        <path d="M160.7,61.5c0,0.6-0.2,1.1-0.6,1.5c-0.4,0.4-0.8,0.5-1.5,0.6c-0.6,0-1.1-0.2-1.5-0.5
                            c-0.4-0.4-0.6-0.9-0.6-1.5v-7.7l-0.4,0.6c-2.7,4-4.5,6-5.6,6c-0.5,0-1-0.1-1.5-0.5c-0.4-0.4-0.7-0.8-0.7-1.2c0-0.5,0.2-1,0.7-1.5
                            c2.7-2.7,4.9-5.4,6.4-8.2h-5c-0.7,0-1.2-0.2-1.5-0.5c-0.4-0.4-0.5-0.8-0.5-1.4c0-0.5,0.2-0.9,0.5-1.3c0.4-0.4,0.9-0.5,1.5-0.5
                            h6.3v-2l-5,0.3c-0.6,0-1.1-0.1-1.5-0.5c-0.4-0.4-0.6-0.8-0.6-1.3c0-0.6,0.1-1.1,0.5-1.4c0.4-0.4,0.8-0.5,1.5-0.5
                            c3.5,0,7.1-0.3,11.1-1c1.9-0.4,3-0.6,3.4-0.3c0.4,0.2,0.7,0.6,0.9,1.1c0.1,0.5,0.1,1-0.1,1.5c-0.2,0.4-0.6,0.7-1.2,0.9l-4.7,0.9
                            v2.4h5.1c0.6,0,1.1,0.2,1.5,0.5c0.4,0.4,0.5,0.8,0.5,1.4c0,0.5-0.2,0.9-0.5,1.3c-0.4,0.4-0.9,0.6-1.5,0.6h-5.1l6,5.7
                            c0.4,0.4,0.5,0.9,0.5,1.5c-0.1,0.5-0.3,0.9-0.8,1.2c-0.5,0.3-1,0.4-1.5,0.4c-0.6,0-1.1-0.4-1.5-0.9l-2.7-3V61.5z M161.2,28.2
                            c2-0.6,3.2-0.9,3.7-0.7c0.4,0.2,0.7,0.5,1,1c0.2,0.5,0.2,0.9,0,1.4c-0.6,1.2-4.8,2.3-12.6,3.2c0.1,0.4,0.3,0.7,0.6,0.9
                            c0.4,0.4,0.9,0.6,1.5,0.6c4.4,0.1,6.9-0.1,7.4-0.4c0.4-0.2,0.6-0.5,0.7-0.8l0.1-0.2c0-0.8,0.3-1.4,1-1.9c0.5-0.3,1-0.4,1.5-0.3
                            c0.6,0.2,1,0.4,1.2,0.8c0.3,0.5,0.4,1,0.2,1.6l-0.4,1.5c-0.3,1.2-1.1,2.2-2.6,2.8c-1.5,0.6-5,0.7-10.6,0.5
                            c-0.9-0.1-1.8-0.4-2.7-0.8c-1.4-0.9-2.1-2.1-2.1-3.5v-5.5c0-0.6,0.2-1.1,0.5-1.5c0.4-0.3,0.8-0.5,1.4-0.5c0.6,0,1.1,0.2,1.4,0.5
                            c0.4,0.4,0.6,0.9,0.6,1.5v1.1L161.2,28.2z M174,57.1c0.4,0.1,0.8,0.5,1.1,0.9c0.3,0.5,0.4,1,0.2,1.5c-0.4,1.2-3.3,2.5-8.6,4.1
                            c-0.7,0.2-1.3,0.2-1.8-0.1c-0.5-0.2-0.9-0.6-1.1-1.2c-0.2-0.6-0.2-1.1,0.1-1.5c0.3-0.5,0.8-0.8,1.5-1c2.8-0.8,4.9-1.6,6.4-2.4
                            l0.7-0.3h-1.7c-0.9,0-1.6-0.3-2-0.9c-0.6-0.7-0.9-1.4-0.8-2.2V36.1c0-0.7,0.3-1.3,0.8-1.8c0.6-0.5,1.3-0.8,2-0.8h2.7l1-2H169
                            c-0.6,0-1.1-0.2-1.5-0.5c-0.4-0.3-0.5-0.8-0.5-1.3c0-0.5,0.2-1,0.5-1.3c0.4-0.3,0.8-0.5,1.5-0.5h18.1c0.6,0,1.1,0.2,1.4,0.5
                            c0.4,0.3,0.5,0.8,0.5,1.3c0,0.5-0.2,1-0.5,1.3c-0.4,0.4-0.8,0.5-1.4,0.5h-8l-0.9,2h5.9c1,0,1.8,0.2,2.5,0.8
                            c0.6,0.5,0.8,1.1,0.9,1.8v17.9c0,0.8-0.3,1.5-1,2.1c-0.7,0.6-1.4,0.9-2.3,0.9h-2.8l0.3,0.1c1.8,0.5,3.9,1.4,6.3,2.6
                            c0.6,0.4,1,0.8,1.2,1.3c0.1,0.5,0,1-0.2,1.5c-0.4,0.5-0.8,0.8-1.3,0.9c-0.6,0.1-1.2,0-1.8-0.4c-2.2-1.1-3.9-1.9-5.4-2.3
                            c-0.7-0.2-1.2-0.5-1.5-1c-0.2-0.5-0.2-1,0-1.5c0.2-0.6,0.5-0.9,1-1.2l0.4-0.1H174z M183.4,40v-2l-0.2-0.5
                            c-0.2-0.2-0.3-0.2-0.5-0.2h-9.7l-0.5,0.2c-0.2,0.2-0.2,0.4-0.2,0.5v2H183.4z M183.4,46.8v-3.1h-11.2v3.1H183.4z M172.2,50.6v2
                            l0.2,0.5c0.2,0.2,0.3,0.2,0.5,0.2h9.7l0.5-0.2l0.2-0.5v-2H172.2z"/>
                        <path d="M204.6,34.2c0.5,0,1,0.2,1.5,0.6c0.4,0.4,0.5,0.8,0.5,1.3c-0.1,1.2-1.7,2.5-4.9,4.1
                            c-2.7,1.3-4.5,1.7-5.4,1.2c-0.4-0.3-0.7-0.7-0.9-1.1c-0.2-1.3,0.3-2,1.6-2.3c2.3-0.7,4.3-1.8,6-3.2
                            C203.5,34.3,204,34.1,204.6,34.2z M210.5,58.5l0.2,0.5c0.2,0.5,0.2,1-0.1,1.5c-0.2,0.4-0.7,0.8-1.4,1c-2.9,0.9-6.6,1.6-10.9,2
                            c-0.7,0.1-1.2,0-1.7-0.3c-0.4-0.3-0.7-0.8-0.8-1.3c-0.1-0.6,0.1-1,0.4-1.4c0.4-0.4,1-0.6,1.7-0.7c2.9-0.4,5.3-0.7,7.3-1.1h-1.7
                            c-0.8,0-1.5-0.3-1.9-0.8c-0.6-0.6-0.8-1.3-0.8-2.1V43.1c0-0.7,0.3-1.3,0.8-1.7c0.5-0.5,1.2-0.8,1.9-0.8h24c0.9,0,1.7,0.2,2.3,0.8
                            c0.5,0.4,0.8,1,0.8,1.7v12.5c0,0.8-0.3,1.4-1,2c-0.7,0.6-1.4,0.8-2.2,0.9H226c5.6,0.9,8.7,1.7,9.2,2.5c0.3,0.4,0.3,0.9,0.2,1.4
                            c-0.2,0.5-0.5,0.8-0.9,1.1c-0.5,0.3-1.1,0.3-1.8,0.1c-2.3-0.7-5.4-1.3-9.2-1.8c-1.6-0.2-2.5-0.5-2.8-0.8
                            c-0.4-0.4-0.5-0.8-0.5-1.4c0.1-0.4,0.3-0.8,0.6-1.1H210.5z M205,28.5c0.6,0,1.1,0.1,1.4,0.5c0.4,0.3,0.5,0.8,0.5,1.3
                            c0,0.5-0.2,1-0.5,1.3c-0.4,0.4-0.8,0.5-1.4,0.5h-7c-0.6,0-1.1-0.2-1.5-0.5c-0.4-0.3-0.5-0.8-0.5-1.3c0-0.5,0.2-1,0.5-1.3
                            c0.4-0.3,0.8-0.5,1.5-0.5H205z M226.5,45.5v-1l-0.2-0.5c-0.2-0.2-0.3-0.2-0.5-0.2h-19.8c-0.2,0-0.4,0-0.5,0.2l-0.2,0.5v1H226.5z
                            M226.5,50.3v-1.7h-21.3v1.7H226.5z M205.2,53.5v1.1l0.2,0.5l0.5,0.2h19.8l0.5-0.2l0.2-0.5v-1.1H205.2z M219.2,35.1
                            c-2,2.3-4.5,3.8-7.6,4.6c-2.3,0.6-3.8,0.6-4.4,0.2c-0.4-0.4-0.7-0.8-0.8-1.2c-0.2-1.3,0.4-2,1.8-2.1c1.6-0.2,2.8-0.4,3.6-0.7
                            l0.4-0.1c1.5-0.7,3-1.9,4.5-3.7h-3.7l-0.7,0.7c-2.2,1.9-3.7,2.7-4.7,2.6c-0.5-0.2-0.9-0.5-1.3-0.9c-0.3-0.5-0.4-0.9-0.2-1.4
                            c0.1-0.5,0.5-1,1.1-1.3c1.9-1.1,3.5-2.6,4.7-4.5c0.4-0.6,0.8-0.9,1.4-1c0.5-0.1,1,0,1.5,0.2c0.5,0.3,0.8,0.7,1,1.1l-0.1,1.1h15.7
                            c0.8,0,1.4,0.3,2,0.9c0.4,0.5,0.6,1,0.6,1.6c0,0.3-0.1,0.6-0.4,1c-0.3,0.4-1.4,1.5-3.3,3.2c-0.4,0.4-0.9,0.6-1.5,0.6
                            c-0.8,0-1.3-0.2-1.7-0.5c-0.4-0.4-0.5-0.8-0.5-1.4c0-0.6,0.3-1.1,0.7-1.3l0.7-0.5c0.2-0.1,0.2-0.2,0.1-0.3
                            c-0.1-0.1-0.5-0.2-1-0.2h-5.5c1.7,2.5,5,4.2,9.6,5.2c2.2,0.3,3.6,0.6,4,1.1c0.3,0.4,0.4,0.9,0.3,1.5c-0.1,0.6-0.4,1-0.9,1.2
                            c-0.4,0.3-1,0.4-1.8,0.3C227.6,41,223,38.9,219.2,35.1L219.2,35.1z"/>
                        <path d="M257.2,33.1c0.6,0,1.1,0.2,1.5,0.5c0.4,0.4,0.5,0.8,0.5,1.4c0,0.5-0.2,0.9-0.5,1.3c-0.4,0.4-0.9,0.6-1.5,0.6
                            h-14.1c-0.7,0-1.2-0.2-1.5-0.5c-0.4-0.4-0.5-0.8-0.5-1.4c0-0.5,0.2-0.9,0.5-1.3c0.4-0.4,0.9-0.5,1.5-0.5H257.2z M245.5,62.2
                            c-0.8,0-1.5-0.3-1.9-0.8c-0.6-0.7-0.9-1.4-0.8-2.1v-8.8c0-0.7,0.3-1.3,0.8-1.8c0.5-0.5,1.2-0.8,2-0.8h8.3c0.9,0,1.7,0.2,2.4,0.8
                            c0.5,0.5,0.8,1,0.8,1.7v8.8c0,0.8-0.3,1.4-1,2.1c-0.6,0.6-1.4,0.8-2.2,0.9H245.5z M254.7,28.1c0.6,0,1.1,0.2,1.5,0.5
                            c0.4,0.4,0.5,0.8,0.5,1.4c0,0.5-0.2,0.9-0.5,1.3c-0.4,0.4-0.9,0.6-1.5,0.6h-9.8c-0.7,0-1.2-0.2-1.5-0.5c-0.4-0.4-0.5-0.8-0.5-1.4
                            c0-0.5,0.2-0.9,0.5-1.3c0.4-0.4,0.9-0.5,1.5-0.5H254.7z M254.6,38c0.6,0,1.1,0.2,1.4,0.5c0.4,0.3,0.5,0.8,0.5,1.3
                            c0,0.5-0.2,1-0.5,1.3c-0.4,0.4-0.8,0.5-1.4,0.5h-9.3c-0.6,0-1.1-0.2-1.5-0.5c-0.4-0.3-0.5-0.8-0.5-1.3c0-0.5,0.2-1,0.5-1.3
                            c0.4-0.3,0.8-0.5,1.5-0.5H254.6z M254.7,42.8c0.6,0,1.1,0.1,1.4,0.5c0.4,0.3,0.5,0.8,0.5,1.3c0,0.5-0.2,1-0.5,1.3
                            c-0.4,0.4-0.8,0.5-1.4,0.5h-9.5c-0.6,0-1.1-0.2-1.5-0.5c-0.4-0.3-0.5-0.8-0.5-1.3c0-0.5,0.2-1,0.5-1.3c0.4-0.3,0.8-0.5,1.5-0.5
                            H254.7z M247.6,51.4l-0.5,0.2c-0.2,0.2-0.2,0.4-0.2,0.5v5.7l0.2,0.5c0.2,0.2,0.3,0.2,0.5,0.2h4.5c0.2,0,0.4-0.1,0.5-0.2l0.2-0.5
                            v-5.7l-0.2-0.5c-0.2-0.2-0.3-0.2-0.5-0.2H247.6z M262.4,32.1h-2.5c-0.8,0-1.3-0.2-1.8-0.6c-0.4-0.4-0.6-0.8-0.6-1.4
                            c0.1-0.6,0.3-1,0.6-1.4c0.5-0.4,1.1-0.6,1.7-0.6h12.5c1.2,0,2.1,0.3,2.9,1c0.7,0.6,1.1,1.4,1.1,2.5c0,14.9,0.1,23.2,0.2,24.9
                            c0.1,0.3,0.1,0.4,0.3,0.4c0.2,0,0.5-1.3,0.7-3.9c0.1-0.7,0.4-1.2,0.8-1.5c0.4-0.3,1-0.4,1.6-0.4c0.7,0.1,1.1,0.4,1.4,0.8
                            c0.4,0.4,0.5,1,0.5,1.6c-0.6,5.1-1.6,8.1-3.2,9.1c-0.6,0.4-1.2,0.5-1.8,0.4h-0.4c-2.1-0.4-3.4-1.9-3.7-4.5
                            c-0.6-2.2-0.8-10.4-0.7-24.7c0-0.5-0.1-0.9-0.5-1.2c-0.4-0.3-0.8-0.5-1.3-0.5h-3.7v10.8c1.7-0.7,2.9-0.9,3.4-0.8
                            c0.5,0.2,0.9,0.5,1.2,1c0.2,0.5,0.3,1,0.2,1.5c-0.1,0.4-0.5,0.8-1.2,1.1c-1,0.4-2.3,0.9-3.8,1.3c-0.6,4.2-1.3,7.4-2.2,9.6
                            c-1.7,4-3.2,6.1-4.4,6.3c-0.6,0.1-1.1,0.1-1.7-0.2c-0.5-0.3-0.9-0.7-1.1-1.2c-0.1-0.6,0-1.2,0.4-1.7c2.6-3.4,4.2-7.3,4.8-11.7
                            l-3.1,0.7c-0.7,0.1-1.2,0-1.7-0.2c-0.5-0.3-0.8-0.7-0.9-1.3c-0.1-0.6,0-1,0.2-1.4c0.3-0.5,0.8-0.8,1.4-0.9l4.2-1V32.1z"/>
                    </g>
                </g>
                <rect style="fill:none;" width="300" height="90"/>
            </g>
        </symbol>

        <symbol id="footer-hy-logo" width="100%" height="100%" viewBox="0 0 300 300">
            <g>
                <g>
                    <polygon points="150,37.5 104.8,63.6 150,89.7"/>
                    <polygon points="150,37.5 195.2,63.6 150,89.7"/>
                    <path d="M250.7,100.1c0-5.8-4.7-10.4-10.4-10.4c-5.8,0-10.4,4.7-10.4,10.4c0,3.9,2.1,7.2,5.2,9v86.3L215.4,184V91.7
                        c3.1-1.8,5.2-5.1,5.2-9c0-5.8-4.7-10.4-10.4-10.4c-5.8,0-10.4,4.7-10.4,10.4c0,3.9,2.1,7.2,5.2,9V190l24.9,14.4l-74.7,43.1v-22.7
                        l30.1-17.4v-98.3c3.1-1.8,5.2-5.1,5.2-9c0-5.8-4.7-10.4-10.4-10.4c-5.8,0-10.4,4.7-10.4,10.4c0,3.9,2.1,7.2,5.2,9v92.3l-19.7,11.4
                        v-86.3c3.1-1.8,5.2-5.1,5.2-9c0-5.7-4.7-10.4-10.4-10.4c-5.8,0-10.4,4.7-10.4,10.4c0,3.9,2.1,7.2,5.2,9v86.3l-19.7-11.4v-92.3
                        c3.1-1.8,5.2-5.1,5.2-9c0-5.8-4.7-10.4-10.4-10.4c-5.8,0-10.4,4.7-10.4,10.4c0,3.9,2.1,7.2,5.2,9v98.3l30.1,17.4v22.7l-74.7-43.1
                        L95,190V91.7c3.1-1.8,5.2-5.1,5.2-9c0-5.8-4.7-10.4-10.4-10.4c-5.8,0-10.4,4.7-10.4,10.4c0,3.9,2.1,7.2,5.2,9V184l-19.7,11.3V109
                        c3.1-1.8,5.2-5.1,5.2-9c0-5.8-4.7-10.4-10.4-10.4c-5.8,0-10.4,4.7-10.4,10.4c0,3.9,2.1,7.2,5.2,9v98.3l95.5,55.1l95.5-55.1v-98.3
                        C248.6,107.3,250.7,103.9,250.7,100.1z"/>
                </g>
                <rect style="fill:none" width="300" height="300"/>
            </g>
        </symbol>

        <symbol id="facebook" width="100%" height="100%" viewBox="0 0 300 300">
            <g>
                <path d="M116.8,262.5V156.6H90.6v-39.7h26.2V90.4c0-29.2,23.7-52.9,52.9-52.9h39.7v39.7h-39.7
                    c-7.3,0-13.2,5.9-13.2,13.2v26.5h52.9l-6.6,39.7h-46.3v105.9H116.8z"/>
                <rect style="fill:none" y="0" width="300" height="300"/>
            </g>
        </symbol>

        <symbol id="instagram" width="100%" height="100%" viewBox="0 0 300 300">
            <g>
                <g>
                    <path d="M150.8,58c30.3,0,33.5,0,45.8,0.8c10.6,0.8,17.2,2.5,21.3,4.1c4.9,1.6,9,4.1,13.1,8.2
                        c4.1,4.1,6.5,7.4,8.2,13.1c1.6,4.1,3.3,9.8,4.1,21.3c0.8,12.3,0.8,15.5,0.8,45.8s0,33.5-0.8,45.8c-0.8,10.6-2.5,17.2-4.1,21.3
                        c-1.6,4.9-4.1,9-8.2,13.1c-4.1,4.1-7.4,6.5-13.1,8.2c-4.1,1.6-9.8,3.3-21.3,4.1c-12.3,0.8-15.5,0.8-45.8,0.8s-33.5,0-45.8-0.8
                        c-10.6-0.8-17.2-2.5-21.3-4.1c-4.9-1.6-9-4.1-13.1-8.2c-4.1-4.1-6.5-7.4-8.2-13.1c-1.6-4.1-3.3-9.8-4.1-21.3
                        c-0.8-12.3-0.8-15.5-0.8-45.8s0-33.5,0.8-45.8c0.8-10.6,2.5-17.2,4.1-21.3c1.6-4.9,4.1-9,8.2-13.1c4.1-4.1,7.4-6.5,13.1-8.2
                        c4.1-1.6,9.8-3.3,21.3-4.1C117.3,58,120.5,58,150.8,58 M150.8,37.5c-30.3,0-34.4,0-46.6,0.8c-11.5,0.8-19.6,2.5-27,5.7
                        c-7.4,2.5-13.9,6.5-19.6,13.1C51,62.9,46.9,69.4,44.5,76.8c-3.3,7.4-4.9,15.5-5.7,27c-0.8,12.3-0.8,15.5-0.8,46.6
                        c0,30.3,0,34.4,0.8,46.6c0.8,12.3,2.5,20.5,4.9,27c3.3,7.4,6.5,13.9,13.1,19.6c6.5,6.5,12.3,9.8,19.6,13.1
                        c7.4,2.5,15.5,4.9,27,4.9c12.3,0.8,15.5,0.8,46.6,0.8s34.4,0,46.6-0.8c12.3-0.8,20.5-2.5,27-4.9c7.4-3.3,13.9-6.5,19.6-13.1
                        c6.5-6.5,9.8-12.3,13.1-19.6c2.5-7.4,4.9-15.5,4.9-27c0.8-12.3,0.8-15.5,0.8-46.6s0-34.4-0.8-46.6c-0.8-12.3-2.5-20.5-4.9-27
                        c-3.3-7.4-6.5-13.9-13.1-19.6c-6.5-6.5-12.3-9.8-19.6-13.1c-7.4-2.5-15.5-4.9-27-4.9C185.2,38.3,181.1,37.5,150.8,37.5L150.8,37.5
                        z"/>
                    <path d="M150.8,92.3c-31.9,0-58.1,26.2-58.1,58.1s26.2,58.1,58.1,58.1s58.1-26.2,58.1-58.1S182.7,92.3,150.8,92.3z
                        M150.8,188c-20.5,0-37.6-17.2-37.6-37.6s17.2-37.6,37.6-37.6s37.6,17.2,37.6,37.6S171.3,188,150.8,188z"/>
                    <circle cx="210.5" cy="90.7" r="13.9"/>
                </g>
                <rect style="fill:none" y="0" width="300" height="300"/>
            </g>
        </symbol>

        <symbol id="line" width="100%" height="100%" viewBox="0 0 300 300">
            <g>
                <path d="M268,132.9c0-52.5-53.3-95.4-118.4-95.4C85.3,37.5,32,80.4,32,132.9c0,47.3,42.2,87.3,98.4,94.7
                    c3.7,0.7,8.9,2.2,10.4,5.9c1.5,3,0.7,7.4,0.7,10.4c0,0-1.5,8.1-1.5,10.4c-0.7,3-2.2,11.8,10.4,6.7c12.6-5.2,68.1-39.9,92.5-68.8
                    l0,0C259.9,173.6,268,154.4,268,132.9z M108.2,161.8c0,1.5-0.7,2.2-2.2,2.2H72.7l0,0c-0.7,0-1.5,0-1.5-0.7l0,0l0,0
                    c-0.7-0.7-0.7-0.7-0.7-1.5l0,0V110c0-1.5,0.7-2.2,2.2-2.2h8.1c1.5,0,3,0.7,3,2.2v40.7H106c1.5,0,2.2,0.7,2.2,2.2V161.8z
                    M128.2,161.8c0,1.5-0.7,2.2-2.2,2.2h-8.1c-1.5,0-2.2-0.7-2.2-2.2V110c0-1.5,0.7-2.2,2.2-2.2h8.1c1.5,0,2.2,0.7,2.2,2.2V161.8z
                    M183.7,161.8c0,1.5-0.7,2.2-2.2,2.2h-6.7H174l0,0l0,0l0,0l0,0l0,0l0,0l0,0l0,0l0,0l-24.4-32.5v30.3c0,1.5-0.7,2.2-2.2,2.2h-8.1
                    c-1.5,0-2.2-0.7-2.2-2.2V110c0-1.5,0.7-2.2,2.2-2.2h8.1l0,0l0,0l0,0l0,0l0,0l0,0l0,0l0,0l0,0l0,0l0,0l0,0l0,0l0,0l0,0l0,0l0,0l0,0
                    l0,0l23.7,31.8V110c0-1.5,0.7-2.2,2.2-2.2h8.1c1.5,0,2.2,0.7,2.2,2.2V161.8L183.7,161.8z M231,118.9c0,1.5-0.7,2.2-2.2,2.2h-22.2
                    v8.9h22.2c1.5,0,2.2,0.7,2.2,2.2v8.1c0,1.5-0.7,2.2-2.2,2.2h-22.2v8.9h22.2c1.5,0,2.2,0.7,2.2,2.2v8.1c0,1.5-0.7,2.2-2.2,2.2h-33.3
                    c0,0-2.2-0.1-2.2-2.2V110c0,0,0-2.2,2.2-2.2l0,0h33.3c1.5,0,2.2,0.7,2.2,2.2V118.9z"/>
                <rect style="fill:none" width="300" height="300"/>
            </g>
        </symbol>
    </defs>
</svg>